<svg width="78" height="94" viewBox="0 0 78 94" fill="none" xmlns="http://www.w3.org/2000/svg">
<path d="M24.239 12.6735L12.2007 40.7612C12.0342 41.1619 11.9698 41.5969 12.0131 42.0279C12.0565 42.459 12.2062 42.8729 12.4493 43.2334C12.6923 43.5937 13.0212 43.8896 13.407 44.095C13.7928 44.3004 14.2237 44.4089 14.6618 44.411H29.5894L18.8887 81.4382L64.8486 38.3809C65.2306 38.0172 65.4944 37.5496 65.6067 37.0373C65.7191 36.5252 65.6752 35.9914 65.4799 35.504C65.2852 35.0166 64.9481 34.5974 64.512 34.2997C64.0754 34.002 63.5596 33.8391 63.0294 33.8318H42.9654L53.6662 12.6735H24.239Z" stroke="#FAE07B" stroke-width="23.7322" stroke-linecap="round" stroke-linejoin="round"/>
<rect x="21.2615" y="19.4804" width="23.7322" height="19.9351" fill="#FAE07B"/>
<path d="M24.239 12.6735L12.2007 40.7612C12.0342 41.1619 11.9698 41.5969 12.0131 42.0279C12.0565 42.459 12.2062 42.8729 12.4493 43.2334C12.6923 43.5937 13.0212 43.8896 13.407 44.095C13.7928 44.3004 14.2237 44.4089 14.6618 44.411H29.5894L18.8887 81.4382L64.8486 38.3809C65.2306 38.0172 65.4944 37.5496 65.6067 37.0373C65.7191 36.5252 65.6752 35.9914 65.4799 35.504C65.2852 35.0166 64.9481 34.5974 64.512 34.2997C64.0754 34.002 63.5596 33.8391 63.0294 33.8318H42.9654L53.6662 12.6735H24.239Z" stroke="#ED5724" stroke-width="4.74645" stroke-linecap="round" stroke-linejoin="round"/>
</svg>
