<svg width="73" height="93" viewBox="0 0 73 93" fill="none" xmlns="http://www.w3.org/2000/svg">
<path fill-rule="evenodd" clip-rule="evenodd" d="M52.7415 59.0063C53.7461 58.7798 54.6836 58.3211 55.4789 57.6669C58.3704 55.3122 58.5936 49.9491 56.239 47.0575C54.2193 44.5731 51.6387 42.6036 48.7095 41.3108C45.7803 40.0181 42.5861 39.4391 39.3895 39.6214L46.4057 23.5374C46.8051 22.623 47.0186 21.6383 47.0338 20.6406C47.0489 19.6429 46.8654 18.6522 46.4938 17.7262C46.1223 16.8001 45.5703 15.9572 44.8698 15.2466C44.1694 14.536 43.3345 13.9719 42.4139 13.5871C40.8855 12.9269 39.1748 12.8198 37.5761 13.2845C35.9774 13.7492 34.5906 14.7565 33.6543 16.1331C32.1873 18.3284 30.3747 21.1508 28.5144 24.34V20.1887C28.3921 19.1985 28.0741 18.2425 27.5787 17.3764C27.0834 16.5103 26.4207 15.7515 25.6292 15.144C24.8377 14.5365 23.9332 14.0926 22.9685 13.8381C22.0038 13.5836 20.9981 13.5236 20.0099 13.6615C16.5922 14.1399 13.9505 16.8667 13.7591 20.3057C13.2542 29.3523 13.0416 46.8237 17.7988 57.4596H17.8625C17.6044 65.0956 17.6825 72.7393 18.0964 80.3685H46.5864C49.1279 79.6047 51.494 78.3476 53.5494 76.669C56.3224 74.4116 58.4465 71.4585 59.7045 68.1114C60.1088 67.0386 60.2332 65.8806 60.066 64.7464C59.8987 63.6122 59.4454 62.5393 58.7487 61.6289C58.0521 60.7184 57.135 60.0004 56.084 59.5425C55.033 59.0846 53.8827 58.9019 52.7415 59.0116V59.0063ZM36.0674 65.0498C34.9361 63.6613 34.4028 61.8802 34.5847 60.0984C34.7666 58.3166 35.6489 56.68 37.0375 55.5487C38.426 54.4174 40.2071 53.8841 41.9889 54.066C43.7707 54.2479 45.4073 55.1302 46.5386 56.5188C48.0215 58.3419 50.2593 59.187 52.4279 58.9797C51.3428 59.2291 50.3363 59.743 49.4979 60.4757C48.6595 61.2083 48.0154 62.1369 47.6229 63.1788C47.203 64.2885 46.4981 65.2678 45.5792 66.0183C44.6603 66.7687 43.5599 67.2638 42.3887 67.4535C41.2176 67.6432 40.0171 67.5209 38.9083 67.0989C37.7995 66.6769 36.8214 65.9702 36.0727 65.0498H36.0674Z" fill="#C5E7FF"/>
<path d="M46.5811 80.3685C49.0474 79.6244 51.4181 78.4018 53.5442 76.669C56.3172 74.4116 58.4412 71.4585 59.6993 68.1114C60.1035 67.0386 60.2279 65.8806 60.0607 64.7464C59.8935 63.6122 59.4402 62.5393 58.7435 61.6289C58.0468 60.7184 57.1297 60.0004 56.0787 59.5425C55.0277 59.0846 53.8774 58.9019 52.7363 59.0116C53.7143 58.7884 54.6498 58.3419 55.4789 57.6669C58.3705 55.3122 58.5937 49.9491 56.239 47.0575C54.2188 44.5741 51.638 42.6056 48.7088 41.3138C45.7796 40.022 42.5857 39.4438 39.3895 39.6268L46.4057 23.5374C46.8052 22.623 47.0187 21.6383 47.0338 20.6406C47.049 19.6429 46.8654 18.6522 46.4939 17.7262C46.1224 16.8001 45.5703 15.9572 44.8699 15.2466C44.1694 14.536 43.3346 13.9719 42.414 13.5871C40.8856 12.9269 39.1749 12.8198 37.5762 13.2845C35.9775 13.7492 34.5907 14.7565 33.6543 16.1331C28.3869 24.0104 18.6971 39.9882 18.0965 51.7456C17.262 67.9573 18.0965 80.3685 18.0965 80.3685" stroke="#C5E7FF" stroke-width="25.1148" stroke-linecap="round" stroke-linejoin="round"/>
<path fill-rule="evenodd" clip-rule="evenodd" d="M37.0349 55.5514C36.2356 56.2073 35.5976 57.0381 35.1702 57.9797C34.7428 58.9213 34.5375 59.9485 34.57 60.982C34.6025 62.0155 34.872 63.0278 35.3577 63.9406C35.8434 64.8535 36.5324 65.6426 37.3714 66.247C38.2104 66.8514 39.177 67.2549 40.1967 67.4266C41.2164 67.5982 42.2619 67.5332 43.2525 67.2368C44.2432 66.9403 45.1524 66.4202 45.9102 65.7166C46.668 65.013 47.254 64.1448 47.623 63.1788C48.0155 62.1369 48.6596 61.2083 49.498 60.4757C50.3364 59.743 51.3429 59.2291 52.428 58.9797C51.3195 59.0872 50.2017 58.9187 49.1741 58.4893C48.1465 58.0599 47.2411 57.3829 46.5387 56.5188C45.9786 55.8315 45.2886 55.2613 44.5081 54.8407C43.7276 54.4201 42.8719 54.1574 41.9898 54.0676C41.1078 53.9777 40.2167 54.0625 39.3674 54.3171C38.5182 54.5717 37.7274 54.9911 37.0402 55.5514H37.0349Z" stroke="#C5E7FF" stroke-width="25.1148" stroke-linecap="round" stroke-linejoin="round"/>
<path d="M39.4373 39.6374C38.0766 39.7968 34.8449 40.3975 32.7932 41.5137" stroke="#C5E7FF" stroke-width="25.1148" stroke-linecap="round" stroke-linejoin="round"/>
<path d="M17.7935 57.4596C13.0363 46.8237 13.2489 29.3523 13.7539 20.3057C13.8617 18.6459 14.5441 17.0755 15.6837 15.864C16.8234 14.6526 18.3493 13.8757 19.9994 13.6669C20.9875 13.5289 21.9932 13.5889 22.9579 13.8434C23.9227 14.0979 24.8271 14.5419 25.6186 15.1493C26.4101 15.7568 27.0728 16.5157 27.5681 17.3818C28.0635 18.2478 28.3816 19.2038 28.5038 20.194V24.441" stroke="#C5E7FF" stroke-width="25.1148" stroke-linecap="round" stroke-linejoin="round"/>
<path fill-rule="evenodd" clip-rule="evenodd" d="M52.7415 59.0063C53.7461 58.7798 54.6836 58.3211 55.4789 57.6669C58.3704 55.3122 58.5936 49.9491 56.239 47.0575C54.2193 44.5731 51.6387 42.6036 48.7095 41.3108C45.7803 40.0181 42.5861 39.4391 39.3895 39.6214L46.4057 23.5374C46.8051 22.623 47.0186 21.6383 47.0338 20.6406C47.0489 19.6429 46.8654 18.6522 46.4938 17.7262C46.1223 16.8001 45.5703 15.9572 44.8698 15.2466C44.1694 14.536 43.3345 13.9719 42.4139 13.5871C40.8855 12.9269 39.1748 12.8198 37.5761 13.2845C35.9774 13.7492 34.5906 14.7565 33.6543 16.1331C32.1873 18.3284 30.3747 21.1508 28.5144 24.34V20.1887C28.3921 19.1985 28.0741 18.2425 27.5787 17.3764C27.0834 16.5103 26.4207 15.7515 25.6292 15.144C24.8377 14.5365 23.9332 14.0926 22.9685 13.8381C22.0038 13.5836 20.9981 13.5236 20.0099 13.6615C16.5922 14.1399 13.9505 16.8667 13.7591 20.3057C13.2542 29.3523 13.0416 46.8237 17.7988 57.4596H17.8625C17.6044 65.0956 17.6825 72.7393 18.0964 80.3685H46.5864C49.1279 79.6047 51.494 78.3476 53.5494 76.669C56.3224 74.4116 58.4465 71.4585 59.7045 68.1114C60.1088 67.0386 60.2332 65.8806 60.066 64.7464C59.8987 63.6122 59.4454 62.5393 58.7487 61.6289C58.0521 60.7184 57.135 60.0004 56.084 59.5425C55.033 59.0846 53.8827 58.9019 52.7415 59.0116V59.0063ZM36.0674 65.0498C34.9361 63.6613 34.4028 61.8802 34.5847 60.0984C34.7666 58.3166 35.6489 56.68 37.0375 55.5487C38.426 54.4174 40.2071 53.8841 41.9889 54.066C43.7707 54.2479 45.4073 55.1302 46.5386 56.5188C48.0215 58.3419 50.2593 59.187 52.4279 58.9797C51.3428 59.2291 50.3363 59.743 49.4979 60.4757C48.6595 61.2083 48.0154 62.1369 47.6229 63.1788C47.203 64.2885 46.4981 65.2678 45.5792 66.0183C44.6603 66.7687 43.5599 67.2638 42.3887 67.4535C41.2176 67.6432 40.0171 67.5209 38.9083 67.0989C37.7995 66.6769 36.8214 65.9702 36.0727 65.0498H36.0674Z" fill="#C5E7FF"/>
<path d="M46.5811 80.3685C49.0474 79.6244 51.4181 78.4018 53.5442 76.669C56.3172 74.4116 58.4412 71.4585 59.6993 68.1114C60.1035 67.0386 60.2279 65.8806 60.0607 64.7464C59.8935 63.6122 59.4402 62.5393 58.7435 61.6289C58.0468 60.7184 57.1297 60.0004 56.0787 59.5425C55.0277 59.0846 53.8774 58.9019 52.7363 59.0116C53.7143 58.7884 54.6498 58.3419 55.4789 57.6669C58.3705 55.3122 58.5937 49.9491 56.239 47.0575C54.2188 44.5741 51.638 42.6056 48.7088 41.3138C45.7796 40.022 42.5857 39.4438 39.3895 39.6268L46.4057 23.5374C46.8052 22.623 47.0187 21.6383 47.0338 20.6406C47.049 19.6429 46.8654 18.6522 46.4939 17.7262C46.1224 16.8001 45.5703 15.9572 44.8699 15.2466C44.1694 14.536 43.3346 13.9719 42.414 13.5871C40.8856 12.9269 39.1749 12.8198 37.5762 13.2845C35.9775 13.7492 34.5907 14.7565 33.6543 16.1331C28.3869 24.0104 18.6971 39.9882 18.0965 51.7456C17.262 67.9573 18.0965 80.3685 18.0965 80.3685" stroke="#C5E7FF" stroke-width="23.2544" stroke-linecap="round" stroke-linejoin="round"/>
<path fill-rule="evenodd" clip-rule="evenodd" d="M37.0349 55.5514C36.2356 56.2073 35.5976 57.0381 35.1702 57.9797C34.7428 58.9213 34.5375 59.9485 34.57 60.982C34.6025 62.0155 34.872 63.0278 35.3577 63.9406C35.8434 64.8535 36.5324 65.6426 37.3714 66.247C38.2104 66.8514 39.177 67.2549 40.1967 67.4266C41.2164 67.5982 42.2619 67.5332 43.2525 67.2368C44.2432 66.9403 45.1524 66.4202 45.9102 65.7166C46.668 65.013 47.254 64.1448 47.623 63.1788C48.0155 62.1369 48.6596 61.2083 49.498 60.4757C50.3364 59.743 51.3429 59.2291 52.428 58.9797C51.3195 59.0872 50.2017 58.9187 49.1741 58.4893C48.1465 58.0599 47.2411 57.3829 46.5387 56.5188C45.9786 55.8315 45.2886 55.2613 44.5081 54.8407C43.7276 54.4201 42.8719 54.1574 41.9898 54.0676C41.1078 53.9777 40.2167 54.0625 39.3674 54.3171C38.5182 54.5717 37.7274 54.9911 37.0402 55.5514H37.0349Z" stroke="#C5E7FF" stroke-width="23.2544" stroke-linecap="round" stroke-linejoin="round"/>
<path d="M39.4373 39.6374C38.0766 39.7968 34.8449 40.3975 32.7932 41.5137" stroke="#C5E7FF" stroke-width="23.2544" stroke-linecap="round" stroke-linejoin="round"/>
<path d="M17.7935 57.4596C13.0363 46.8237 13.2489 29.3523 13.7539 20.3057C13.8617 18.6459 14.5441 17.0755 15.6837 15.864C16.8234 14.6526 18.3493 13.8757 19.9994 13.6669C20.9875 13.5289 21.9932 13.5889 22.9579 13.8434C23.9227 14.0979 24.8271 14.5419 25.6186 15.1493C26.4101 15.7568 27.0728 16.5157 27.5681 17.3818C28.0635 18.2478 28.3816 19.2038 28.5038 20.194V24.441" stroke="#C5E7FF" stroke-width="23.2544" stroke-linecap="round" stroke-linejoin="round"/>
<rect x="17.1825" y="76.188" width="30.6958" height="16.7432" fill="#C5E7FF"/>
<path fill-rule="evenodd" clip-rule="evenodd" d="M52.7415 59.0063C53.7461 58.7798 54.6836 58.3211 55.4789 57.6669C58.3704 55.3122 58.5936 49.9491 56.239 47.0575C54.2193 44.5731 51.6387 42.6036 48.7095 41.3108C45.7803 40.0181 42.5861 39.4391 39.3895 39.6214L46.4057 23.5374C46.8051 22.623 47.0186 21.6383 47.0338 20.6406C47.0489 19.6429 46.8654 18.6522 46.4938 17.7262C46.1223 16.8001 45.5703 15.9572 44.8698 15.2466C44.1694 14.536 43.3345 13.9719 42.4139 13.5871C40.8855 12.9269 39.1748 12.8198 37.5761 13.2845C35.9774 13.7492 34.5906 14.7565 33.6543 16.1331C32.1873 18.3284 30.3747 21.1508 28.5144 24.34V20.1887C28.3921 19.1985 28.0741 18.2425 27.5787 17.3764C27.0834 16.5103 26.4207 15.7515 25.6292 15.144C24.8377 14.5365 23.9332 14.0926 22.9685 13.8381C22.0038 13.5836 20.9981 13.5236 20.0099 13.6615C16.5922 14.1399 13.9505 16.8667 13.7591 20.3057C13.2542 29.3523 13.0416 46.8237 17.7988 57.4596H17.8625C17.6044 65.0956 17.6825 72.7393 18.0964 80.3685H46.5864C49.1279 79.6047 51.494 78.3476 53.5494 76.669C56.3224 74.4116 58.4465 71.4585 59.7045 68.1114C60.1088 67.0386 60.2332 65.8806 60.066 64.7464C59.8987 63.6122 59.4454 62.5393 58.7487 61.6289C58.0521 60.7184 57.135 60.0004 56.084 59.5425C55.033 59.0846 53.8827 58.9019 52.7415 59.0116V59.0063ZM36.0674 65.0498C34.9361 63.6613 34.4028 61.8802 34.5847 60.0984C34.7666 58.3166 35.6489 56.68 37.0375 55.5487C38.426 54.4174 40.2071 53.8841 41.9889 54.066C43.7707 54.2479 45.4073 55.1302 46.5386 56.5188C48.0215 58.3419 50.2593 59.187 52.4279 58.9797C51.3428 59.2291 50.3363 59.743 49.4979 60.4757C48.6595 61.2083 48.0154 62.1369 47.6229 63.1788C47.203 64.2885 46.4981 65.2678 45.5792 66.0183C44.6603 66.7687 43.5599 67.2638 42.3887 67.4535C41.2176 67.6432 40.0171 67.5209 38.9083 67.0989C37.7995 66.6769 36.8214 65.9702 36.0727 65.0498H36.0674Z" fill="#C5E7FF"/>
<path d="M46.5811 80.3685C49.0474 79.6244 51.4181 78.4018 53.5442 76.669C56.3172 74.4116 58.4412 71.4585 59.6993 68.1114C60.1035 67.0386 60.2279 65.8806 60.0607 64.7464C59.8935 63.6122 59.4402 62.5393 58.7435 61.6289C58.0468 60.7184 57.1297 60.0004 56.0787 59.5425C55.0277 59.0846 53.8774 58.9019 52.7363 59.0116C53.7143 58.7884 54.6498 58.3419 55.4789 57.6669C58.3705 55.3122 58.5937 49.9491 56.239 47.0575C54.2188 44.5741 51.638 42.6056 48.7088 41.3138C45.7796 40.022 42.5857 39.4438 39.3895 39.6268L46.4057 23.5374C46.8052 22.623 47.0187 21.6383 47.0338 20.6406C47.049 19.6429 46.8654 18.6522 46.4939 17.7262C46.1224 16.8001 45.5703 15.9572 44.8699 15.2466C44.1694 14.536 43.3346 13.9719 42.414 13.5871C40.8856 12.9269 39.1749 12.8198 37.5762 13.2845C35.9775 13.7492 34.5907 14.7565 33.6543 16.1331C28.3869 24.0104 18.6971 39.9882 18.0965 51.7456C17.262 67.9573 18.0965 80.3685 18.0965 80.3685" stroke="#065C6A" stroke-width="4.65088" stroke-linecap="round" stroke-linejoin="round"/>
<path fill-rule="evenodd" clip-rule="evenodd" d="M37.0349 55.5514C36.2356 56.2073 35.5976 57.0381 35.1702 57.9797C34.7428 58.9213 34.5375 59.9485 34.57 60.982C34.6025 62.0155 34.872 63.0278 35.3577 63.9406C35.8434 64.8535 36.5324 65.6426 37.3714 66.247C38.2104 66.8514 39.177 67.2549 40.1967 67.4266C41.2164 67.5982 42.2619 67.5332 43.2525 67.2368C44.2432 66.9403 45.1524 66.4202 45.9102 65.7166C46.668 65.013 47.254 64.1448 47.623 63.1788C48.0155 62.1369 48.6596 61.2083 49.498 60.4757C50.3364 59.743 51.3429 59.2291 52.428 58.9797C51.3195 59.0872 50.2017 58.9187 49.1741 58.4893C48.1465 58.0599 47.2411 57.3829 46.5387 56.5188C45.9786 55.8315 45.2886 55.2613 44.5081 54.8407C43.7276 54.4201 42.8719 54.1574 41.9898 54.0676C41.1078 53.9777 40.2167 54.0625 39.3674 54.3171C38.5182 54.5717 37.7274 54.9911 37.0402 55.5514H37.0349Z" stroke="#065C6A" stroke-width="4.65088" stroke-linecap="round" stroke-linejoin="round"/>
<path d="M39.4373 39.6374C38.0766 39.7968 34.8449 40.3975 32.7932 41.5137" stroke="#065C6A" stroke-width="4.65088" stroke-linecap="round" stroke-linejoin="round"/>
<path d="M17.7935 57.4596C13.0363 46.8237 13.2489 29.3523 13.7539 20.3057C13.8617 18.6459 14.5441 17.0755 15.6837 15.864C16.8234 14.6526 18.3493 13.8757 19.9994 13.6669C20.9875 13.5289 21.9932 13.5889 22.9579 13.8434C23.9227 14.0979 24.8271 14.5419 25.6186 15.1493C26.4101 15.7568 27.0728 16.5157 27.5681 17.3818C28.0635 18.2478 28.3816 19.2038 28.5038 20.194V24.441" stroke="#065C6A" stroke-width="4.65088" stroke-linecap="round" stroke-linejoin="round"/>
</svg>
