<svg width="94" height="93" viewBox="0 0 94 93" fill="none" xmlns="http://www.w3.org/2000/svg">
<rect x="33.8337" y="53.8196" width="23.7322" height="19.9351" fill="#D3F1A1"/>
<path d="M46.7776 80.996C65.985 80.996 81.5552 65.6027 81.5552 46.6136C81.5552 27.6247 65.985 12.2312 46.7776 12.2312C27.5705 12.2312 12 27.6247 12 46.6136C12 65.6027 27.5705 80.996 46.7776 80.996Z" stroke="#D3F1A1" stroke-width="23.7322" stroke-linecap="round" stroke-linejoin="round"/>
<path d="M14.6747 59.8373H24.0379C26.5212 59.8373 28.9027 58.862 30.6587 57.126C32.4146 55.3901 33.4011 53.0355 33.4011 50.5805V42.6461C33.4011 40.1911 34.3875 37.8366 36.1435 36.1006C37.8994 34.3646 40.281 33.3893 42.7643 33.3893C45.2475 33.3893 47.6291 32.414 49.3851 30.678C51.141 28.9421 52.1275 26.5876 52.1275 24.1325V12.6012" stroke="#D3F1A1" stroke-width="23.7322" stroke-linecap="round" stroke-linejoin="round"/>
<path d="M81.5545 46.0848C78.8756 44.7106 75.905 43.9854 72.8869 43.969H61.4905C59.0072 43.969 56.6257 44.9442 54.8697 46.6802C53.1138 48.4162 52.1273 50.7707 52.1273 53.2258C52.1273 55.6809 53.1138 58.0354 54.8697 59.7713C56.6257 61.5073 59.0072 62.4826 61.4905 62.4826C63.2642 62.4826 64.9656 63.1792 66.2197 64.4191C67.4739 65.659 68.1785 67.3411 68.1785 69.0946V73.6965" stroke="#D3F1A1" stroke-width="23.7322" stroke-linecap="round" stroke-linejoin="round"/>
<path d="M46.7776 80.996C65.985 80.996 81.5552 65.6027 81.5552 46.6136C81.5552 27.6247 65.985 12.2312 46.7776 12.2312C27.5705 12.2312 12 27.6247 12 46.6136C12 65.6027 27.5705 80.996 46.7776 80.996Z" stroke="#227E26" stroke-width="4.74645" stroke-linecap="round" stroke-linejoin="round"/>
<path d="M14.6747 59.8373H24.0379C26.5212 59.8373 28.9027 58.862 30.6587 57.126C32.4146 55.3901 33.4011 53.0355 33.4011 50.5805V42.6461C33.4011 40.1911 34.3875 37.8366 36.1435 36.1006C37.8994 34.3646 40.281 33.3893 42.7643 33.3893C45.2475 33.3893 47.6291 32.414 49.3851 30.678C51.141 28.9421 52.1275 26.5876 52.1275 24.1325V12.6012" stroke="#227E26" stroke-width="4.74645" stroke-linecap="round" stroke-linejoin="round"/>
<path d="M81.5545 46.0848C78.8756 44.7106 75.905 43.9854 72.8869 43.969H61.4905C59.0072 43.969 56.6257 44.9442 54.8697 46.6802C53.1138 48.4162 52.1273 50.7707 52.1273 53.2258C52.1273 55.6809 53.1138 58.0354 54.8697 59.7713C56.6257 61.5073 59.0072 62.4826 61.4905 62.4826C63.2642 62.4826 64.9656 63.1792 66.2197 64.4191C67.4739 65.659 68.1785 67.3411 68.1785 69.0946V73.6965" stroke="#227E26" stroke-width="4.74645" stroke-linecap="round" stroke-linejoin="round"/>
</svg>
