<svg width="107" height="119" viewBox="0 0 107 119" fill="none" xmlns="http://www.w3.org/2000/svg">
<path fill-rule="evenodd" clip-rule="evenodd" d="M77.3734 33.2942L52.1486 46.267L41.5839 78.8845C40.4179 82.4817 37.8733 85.4699 34.5077 87.194L34.4989 87.2212L90.2934 58.6821C91.6358 57.9915 92.6504 56.7977 93.1156 55.3615C93.5808 53.9254 93.4587 52.3635 92.7761 51.017L85.0385 35.7769C84.3479 34.4345 83.1542 33.4199 81.718 32.9547C80.2818 32.4895 78.7199 32.6116 77.3734 33.2942Z" fill="#FAE07B"/>
<path d="M53.0291 43.5488L25.8479 34.7449L18.8048 56.4899L45.986 65.2938L53.0291 43.5488Z" fill="#FAE07B"/>
<path fill-rule="evenodd" clip-rule="evenodd" d="M34.5078 87.1941L34.4916 87.2068C32.8206 88.0599 30.998 88.5755 29.1277 88.7241C27.2575 88.8728 25.3762 88.6516 23.5915 88.0731L75.2358 104.801C76.6775 105.268 78.2458 105.143 79.5955 104.453C80.9452 103.764 81.9658 102.567 82.4328 101.125L87.7151 84.8164C88.1821 83.3746 88.0572 81.8063 87.368 80.4566C86.6787 79.1069 85.4815 78.0863 84.0397 77.6193L65.1977 71.5165L34.499 87.2212L34.5078 87.1941Z" fill="#FAE07B"/>
<path d="M52.1486 46.267L77.3734 33.2942C78.7199 32.6116 80.2818 32.4895 81.718 32.9547C83.1542 33.4199 84.3479 34.4345 85.0385 35.7769L92.7761 51.017C93.4587 52.3635 93.5808 53.9254 93.1156 55.3615C92.6504 56.7977 91.6358 57.9915 90.2934 58.6821L34.4989 87.2212" stroke="#FAE07B" stroke-width="27" stroke-linecap="round" stroke-linejoin="round"/>
<path d="M34.4915 87.2068C36.1623 86.3533 37.6486 85.179 38.8655 83.7511C40.0824 82.3231 41.0062 80.6694 41.5839 78.8844L45.9859 65.2938L18.8047 56.4899L14.4027 70.0805C13.5315 72.7687 13.4771 75.6549 14.2463 78.374C15.0156 81.0931 16.574 83.523 18.7244 85.3563C20.8749 87.1896 23.5207 88.3439 26.3273 88.6733C29.1338 89.0027 31.9751 88.4924 34.4915 87.2068Z" fill="#FAE07B"/>
<path d="M54.636 20.0431L38.3272 14.7608C36.8855 14.2938 35.3172 14.4187 33.9675 15.108C32.6178 15.7972 31.5972 16.9945 31.1302 18.4362L25.8479 34.745L53.0291 43.5489L58.3114 27.2401C58.7784 25.7984 58.6535 24.2301 57.9642 22.8804C57.275 21.5307 56.0777 20.5101 54.636 20.0431Z" fill="#FAE07B"/>
<path d="M38.3272 14.7608L54.636 20.0431C56.0777 20.5101 57.275 21.5307 57.9642 22.8804C58.6535 24.2301 58.7784 25.7984 58.3114 27.2401L41.584 78.8844C40.4165 82.4889 37.865 85.4819 34.4907 87.2051C31.1165 88.9283 27.1959 89.2406 23.5914 88.0731C19.987 86.9056 16.9939 84.3541 15.2707 80.9798C13.5475 77.6056 13.2353 73.685 14.4028 70.0805L31.1302 18.4362C31.5972 16.9945 32.6178 15.7972 33.9675 15.108C35.3172 14.4187 36.8855 14.2938 38.3272 14.7608Z" stroke="#FAE07B" stroke-width="27" stroke-linecap="round" stroke-linejoin="round"/>
<path d="M25.8479 34.7449L53.0291 43.5488" stroke="#FAE07B" stroke-width="27" stroke-linecap="round" stroke-linejoin="round"/>
<path d="M18.8047 56.4899L45.9859 65.2938" stroke="#FAE07B" stroke-width="27" stroke-linecap="round" stroke-linejoin="round"/>
<path d="M65.4097 71.5851L84.0397 77.6193C85.4815 78.0863 86.6787 79.1069 87.368 80.4566C88.0572 81.8063 88.1821 83.3746 87.7151 84.8164L82.4328 101.125C81.9658 102.567 80.9452 103.764 79.5955 104.453C78.2458 105.143 76.6775 105.268 75.2358 104.801L23.5915 88.0731" stroke="#FAE07B" stroke-width="27" stroke-linecap="round" stroke-linejoin="round"/>
<path fill-rule="evenodd" clip-rule="evenodd" d="M77.3734 33.2942L52.1486 46.267L41.5839 78.8845C40.4179 82.4817 37.8733 85.4699 34.5077 87.194L34.4989 87.2212L90.2934 58.6821C91.6358 57.9915 92.6504 56.7977 93.1156 55.3615C93.5808 53.9254 93.4587 52.3635 92.7761 51.017L85.0385 35.7769C84.3479 34.4345 83.1542 33.4199 81.718 32.9547C80.2818 32.4895 78.7199 32.6116 77.3734 33.2942Z" fill="#FAE07B"/>
<path d="M53.0291 43.5488L25.8479 34.7449L18.8048 56.4899L45.986 65.2938L53.0291 43.5488Z" fill="#FAE07B"/>
<path fill-rule="evenodd" clip-rule="evenodd" d="M34.5078 87.1941L34.4916 87.2068C32.8206 88.0599 30.998 88.5755 29.1277 88.7241C27.2575 88.8728 25.3762 88.6516 23.5915 88.0731L75.2358 104.801C76.6775 105.268 78.2458 105.143 79.5955 104.453C80.9452 103.764 81.9658 102.567 82.4328 101.125L87.7151 84.8164C88.1821 83.3746 88.0572 81.8063 87.368 80.4566C86.6787 79.1069 85.4815 78.0863 84.0397 77.6193L65.1977 71.5165L34.499 87.2212L34.5078 87.1941Z" fill="#FAE07B"/>
<path d="M52.1486 46.267L77.3734 33.2942C78.7199 32.6116 80.2818 32.4895 81.718 32.9547C83.1542 33.4199 84.3479 34.4345 85.0385 35.7769L92.7761 51.017C93.4587 52.3635 93.5808 53.9254 93.1156 55.3615C92.6504 56.7977 91.6358 57.9915 90.2934 58.6821L34.4989 87.2212" stroke="#FAE07B" stroke-width="25" stroke-linecap="round" stroke-linejoin="round"/>
<path d="M34.4915 87.2068C36.1623 86.3533 37.6486 85.179 38.8655 83.7511C40.0824 82.3231 41.0062 80.6694 41.5839 78.8844L45.9859 65.2938L18.8047 56.4899L14.4027 70.0805C13.5315 72.7687 13.4771 75.6549 14.2463 78.374C15.0156 81.0931 16.574 83.523 18.7244 85.3563C20.8749 87.1896 23.5207 88.3439 26.3273 88.6733C29.1338 89.0027 31.9751 88.4924 34.4915 87.2068Z" fill="#FAE07B"/>
<path d="M54.636 20.0431L38.3272 14.7608C36.8855 14.2938 35.3172 14.4187 33.9675 15.108C32.6178 15.7972 31.5972 16.9945 31.1302 18.4362L25.8479 34.745L53.0291 43.5489L58.3114 27.2401C58.7784 25.7984 58.6535 24.2301 57.9642 22.8804C57.275 21.5307 56.0777 20.5101 54.636 20.0431Z" fill="#FAE07B"/>
<path d="M38.3272 14.7608L54.636 20.0431C56.0777 20.5101 57.275 21.5307 57.9642 22.8804C58.6535 24.2301 58.7784 25.7984 58.3114 27.2401L41.584 78.8844C40.4165 82.4889 37.865 85.4819 34.4907 87.2051C31.1165 88.9283 27.1959 89.2406 23.5914 88.0731C19.987 86.9056 16.9939 84.3541 15.2707 80.9798C13.5475 77.6056 13.2353 73.685 14.4028 70.0805L31.1302 18.4362C31.5972 16.9945 32.6178 15.7972 33.9675 15.108C35.3172 14.4187 36.8855 14.2938 38.3272 14.7608Z" stroke="#FAE07B" stroke-width="25" stroke-linecap="round" stroke-linejoin="round"/>
<path d="M25.8479 34.7449L53.0291 43.5488" stroke="#FAE07B" stroke-width="25" stroke-linecap="round" stroke-linejoin="round"/>
<path d="M18.8047 56.4899L45.9859 65.2938" stroke="#FAE07B" stroke-width="25" stroke-linecap="round" stroke-linejoin="round"/>
<path d="M65.4097 71.5851L84.0397 77.6193C85.4815 78.0863 86.6787 79.1069 87.368 80.4566C88.0572 81.8063 88.1821 83.3746 87.7151 84.8164L82.4328 101.125C81.9658 102.567 80.9452 103.764 79.5955 104.453C78.2458 105.143 76.6775 105.268 75.2358 104.801L23.5915 88.0731" stroke="#FAE07B" stroke-width="25" stroke-linecap="round" stroke-linejoin="round"/>
<path fill-rule="evenodd" clip-rule="evenodd" d="M77.3734 33.2942L52.1486 46.267L41.5839 78.8845C40.4179 82.4817 37.8733 85.4699 34.5077 87.194L34.4989 87.2212L90.2934 58.6821C91.6358 57.9915 92.6504 56.7977 93.1156 55.3615C93.5808 53.9254 93.4587 52.3635 92.7761 51.017L85.0385 35.7769C84.3479 34.4345 83.1542 33.4199 81.718 32.9547C80.2818 32.4895 78.7199 32.6116 77.3734 33.2942Z" fill="#FAE07B"/>
<path d="M53.0291 43.5488L25.8479 34.7449L18.8048 56.4899L45.986 65.2938L53.0291 43.5488Z" fill="#FAE07B"/>
<path fill-rule="evenodd" clip-rule="evenodd" d="M34.5078 87.1941L34.4916 87.2068C32.8206 88.0599 30.998 88.5755 29.1277 88.7241C27.2575 88.8728 25.3762 88.6516 23.5915 88.0731L75.2358 104.801C76.6775 105.268 78.2458 105.143 79.5955 104.453C80.9452 103.764 81.9658 102.567 82.4328 101.125L87.7151 84.8164C88.1821 83.3746 88.0572 81.8063 87.368 80.4566C86.6787 79.1069 85.4815 78.0863 84.0397 77.6193L65.1977 71.5165L34.499 87.2212L34.5078 87.1941Z" fill="#FAE07B"/>
<path d="M52.1486 46.267L77.3734 33.2942C78.7199 32.6116 80.2818 32.4895 81.718 32.9547C83.1542 33.4199 84.3479 34.4345 85.0385 35.7769L92.7761 51.017C93.4587 52.3635 93.5808 53.9254 93.1156 55.3615C92.6504 56.7977 91.6358 57.9915 90.2934 58.6821L34.4989 87.2212" stroke="#ED5724" stroke-width="5.5" stroke-linecap="round" stroke-linejoin="round"/>
<path d="M34.4915 87.2068C36.1623 86.3533 37.6486 85.179 38.8655 83.7511C40.0824 82.3231 41.0062 80.6694 41.5839 78.8844L45.9859 65.2938L18.8047 56.4899L14.4027 70.0805C13.5315 72.7687 13.4771 75.6549 14.2463 78.374C15.0156 81.0931 16.574 83.523 18.7244 85.3563C20.8749 87.1896 23.5207 88.3439 26.3273 88.6733C29.1338 89.0027 31.9751 88.4924 34.4915 87.2068Z" fill="#FAE07B"/>
<path d="M54.636 20.0431L38.3272 14.7608C36.8855 14.2938 35.3172 14.4187 33.9675 15.108C32.6178 15.7972 31.5972 16.9945 31.1302 18.4362L25.8479 34.745L53.0291 43.5489L58.3114 27.2401C58.7784 25.7984 58.6535 24.2301 57.9642 22.8804C57.275 21.5307 56.0777 20.5101 54.636 20.0431Z" fill="#FAE07B"/>
<path d="M38.3272 14.7608L54.636 20.0431C56.0777 20.5101 57.275 21.5307 57.9642 22.8804C58.6535 24.2301 58.7784 25.7984 58.3114 27.2401L41.584 78.8844C40.4165 82.4889 37.865 85.4819 34.4907 87.2051C31.1165 88.9283 27.1959 89.2406 23.5914 88.0731C19.987 86.9056 16.9939 84.3541 15.2707 80.9798C13.5475 77.6056 13.2353 73.685 14.4028 70.0805L31.1302 18.4362C31.5972 16.9945 32.6178 15.7972 33.9675 15.108C35.3172 14.4187 36.8855 14.2938 38.3272 14.7608Z" stroke="#ED5724" stroke-width="5.5" stroke-linecap="round" stroke-linejoin="round"/>
<path d="M25.8479 34.7449L53.0291 43.5488" stroke="#ED5724" stroke-width="5.5" stroke-linecap="round" stroke-linejoin="round"/>
<path d="M18.8047 56.4899L45.9859 65.2938" stroke="#ED5724" stroke-width="5.5" stroke-linecap="round" stroke-linejoin="round"/>
<path d="M65.4097 71.5851L84.0397 77.6193C85.4815 78.0863 86.6787 79.1069 87.368 80.4566C88.0572 81.8063 88.1821 83.3746 87.7151 84.8164L82.4328 101.125C81.9658 102.567 80.9452 103.764 79.5955 104.453C78.2458 105.143 76.6775 105.268 75.2358 104.801L23.5915 88.0731" stroke="#ED5724" stroke-width="5.5" stroke-linecap="round" stroke-linejoin="round"/>
</svg>
