<svg width="115" height="90" viewBox="0 0 115 90" fill="none" xmlns="http://www.w3.org/2000/svg">
<path d="M14.6282 28.1803L29.0304 33.4103L40.6448 29.6022C44.5655 28.3167 48.8566 28.8646 52.3285 31.094" stroke="#BCF09C" stroke-width="27.2727" stroke-linecap="round" stroke-linejoin="round"/>
<path d="M85.4525 56.323L68.5401 72.4918C64.8225 76.0463 59.2856 76.9111 54.6609 74.6602L18.8845 57.2486" stroke="#BCF09C" stroke-width="27.2727" stroke-linecap="round" stroke-linejoin="round"/>
<path d="M97.0656 45.6557L85.0463 56.7375L61.8741 43.0397L55.0641 49.7034C52.2951 52.413 47.8764 52.4392 45.0753 49.7627C42.2808 47.0922 42.0998 42.6894 44.6657 39.7986L51.6246 31.9587C54.96 28.2011 59.6838 25.9666 64.7043 25.7718L77.2678 25.284L92.4268 13.9754" stroke="#BCF09C" stroke-width="27.2727" stroke-linecap="round" stroke-linejoin="round"/>
<path d="M61.8828 43.0836C67.5195 46.7959 74.259 43.4941 76.3573 39.4827" stroke="#BCF09C" stroke-width="27.2727" stroke-linecap="round" stroke-linejoin="round"/>
<rect x="78.9932" y="16.3669" width="27.2727" height="31.6363" transform="rotate(-8.33033 78.9932 16.3669)" fill="#BCF09C"/>
<rect x="1.37695" y="29.9369" width="27.2727" height="31.6363" transform="rotate(-8.33033 1.37695 29.9369)" fill="#BCF09C"/>
<path d="M14.6282 28.1804L29.0304 33.4103L40.6448 29.6022C44.5655 28.3167 48.8566 28.8646 52.3285 31.094" stroke="#06630A" stroke-width="5.45453" stroke-linecap="round" stroke-linejoin="round"/>
<path d="M85.4525 56.323L68.5401 72.4918C64.8225 76.0463 59.2856 76.9111 54.6609 74.6602L18.8845 57.2486" stroke="#06630A" stroke-width="5.45453" stroke-linecap="round" stroke-linejoin="round"/>
<path d="M97.0656 45.6556L85.0463 56.7375L61.8741 43.0396L55.0641 49.7033C52.2951 52.4129 47.8764 52.4391 45.0753 49.7626C42.2808 47.0922 42.0998 42.6894 44.6657 39.7985L51.6246 31.9586C54.96 28.201 59.6838 25.9666 64.7043 25.7717L77.2678 25.2839L92.4268 13.9754" stroke="#06630A" stroke-width="5.45453" stroke-linecap="round" stroke-linejoin="round"/>
<path d="M61.8828 43.0836C67.5195 46.796 74.259 43.4942 76.3573 39.4827" stroke="#06630A" stroke-width="5.45453" stroke-linecap="round" stroke-linejoin="round"/>
</svg>
