<svg width="221" height="57" viewBox="0 0 221 57" fill="none" xmlns="http://www.w3.org/2000/svg">
<path d="M61.0548 45.1653C58.8612 45.1653 56.9339 44.9146 55.2731 44.4132C53.6435 43.9118 52.2803 43.191 51.1835 42.2509C50.0867 41.3108 49.272 40.1826 48.7392 38.8665C48.2378 37.519 48.0185 36.0304 48.0811 34.4009L55.132 32.8497C55.1947 34.2912 55.4924 35.4664 56.0252 36.3752C56.5892 37.2526 57.3413 37.9107 58.2815 38.3494C59.2216 38.7568 60.2714 38.9605 61.4309 38.9605C62.371 38.9605 63.2014 38.8508 63.9222 38.6314C64.6429 38.3807 65.207 38.0517 65.6144 37.6443C66.0531 37.2056 66.2725 36.7042 66.2725 36.1401C66.2725 35.388 65.9904 34.7769 65.4264 34.3069C64.8623 33.8055 64.0789 33.3824 63.0761 33.0377C62.1046 32.693 60.9921 32.3483 59.7386 32.0036C58.3911 31.6275 57.0436 31.2202 55.6961 30.7814C54.38 30.3114 53.1735 29.7316 52.0767 29.0422C50.9798 28.3528 50.0867 27.4597 49.3973 26.3629C48.7392 25.2661 48.4102 23.9029 48.4102 22.2733C48.4102 20.2677 48.9116 18.5599 49.9144 17.1497C50.9485 15.7395 52.3587 14.674 54.1449 13.9533C55.9625 13.2012 58.0308 12.8251 60.3497 12.8251C62.794 12.8251 64.972 13.2482 66.8836 14.0943C68.7951 14.9091 70.268 16.1155 71.3021 17.7138C72.3363 19.312 72.7436 21.2705 72.5243 23.5895L65.5674 24.7177C65.5987 23.7775 65.5047 22.9471 65.2854 22.2263C65.066 21.5056 64.7213 20.8945 64.2512 20.3931C63.8125 19.8917 63.2484 19.5157 62.559 19.265C61.8696 18.9829 61.0548 18.8419 60.1147 18.8419C59.1432 18.8419 58.3285 18.9672 57.6704 19.2179C57.0436 19.4686 56.5579 19.8134 56.2132 20.2521C55.8998 20.6908 55.7431 21.1922 55.7431 21.7563C55.7431 22.4144 55.9938 22.9628 56.4952 23.4015C56.9966 23.8402 57.7174 24.2319 58.6575 24.5766C59.5976 24.89 60.7101 25.2191 61.9949 25.5638C63.3424 25.9398 64.6899 26.3629 66.0375 26.8329C67.4163 27.2716 68.6855 27.8671 69.8449 28.6192C71.0044 29.3399 71.9289 30.28 72.6183 31.4395C73.3391 32.599 73.6994 34.0719 73.6994 35.8581C73.6994 37.9264 73.151 39.6499 72.0542 41.0288C70.9888 42.4076 69.5002 43.4417 67.5887 44.1312C65.7084 44.8206 63.5305 45.1653 61.0548 45.1653ZM86.1072 45.0713C84.0703 45.0713 82.4564 44.7579 81.2656 44.1312C80.1061 43.4731 79.2443 42.6583 78.6802 41.6868C78.1475 40.7154 77.8028 39.7126 77.6461 38.6785C77.5208 37.613 77.4581 36.6885 77.4581 35.9051V25.6108H74.7317V20.8162H74.8728C76.8157 20.5655 78.1945 19.923 79.0093 18.8889C79.8241 17.8234 80.3255 16.2252 80.5135 14.0943V14.0003H84.9791V19.688H90.6668V25.7988H84.9791V35.2C84.9791 36.3908 85.2611 37.2369 85.8252 37.7383C86.4206 38.2397 87.1413 38.4904 87.9874 38.4904C88.4262 38.4904 88.8806 38.4278 89.3506 38.3024C89.8207 38.1771 90.2594 38.0047 90.6668 37.7853V44.4132C89.6953 44.6952 88.8335 44.8676 88.0815 44.9303C87.3294 45.0243 86.6713 45.0713 86.1072 45.0713ZM93.4949 44.5072V19.688H101.11V44.5072H93.4949ZM97.2553 17.9018C95.8138 17.9018 94.7013 17.6041 93.9179 17.0087C93.1658 16.3819 92.7898 15.4888 92.7898 14.3293C92.7898 13.1385 93.1658 12.2454 93.9179 11.65C94.7013 11.0232 95.8138 10.7099 97.2553 10.7099C98.7282 10.7099 99.8407 11.0232 100.593 11.65C101.376 12.2767 101.768 13.1698 101.768 14.3293C101.768 15.4575 101.376 16.3349 100.593 16.9617C99.8407 17.5884 98.7282 17.9018 97.2553 17.9018ZM116.404 45.1653C114.179 45.1653 112.268 44.8362 110.67 44.1782C109.071 43.4887 107.771 42.5486 106.768 41.3578C105.765 40.167 105.029 38.8038 104.559 37.2683C104.089 35.7327 103.854 34.1032 103.854 32.3796C103.854 30.6247 104.089 28.9639 104.559 27.397C105.029 25.7988 105.75 24.3729 106.721 23.1194C107.724 21.8346 109.009 20.8318 110.576 20.1111C112.174 19.3903 114.085 19.0299 116.31 19.0299C118.285 19.0299 119.961 19.312 121.34 19.876C122.75 20.4401 123.878 21.2235 124.725 22.2263C125.571 23.1978 126.15 24.3103 126.464 25.5638C126.777 26.7859 126.824 28.0708 126.605 29.4183L120.024 29.9353C120.087 28.8072 119.961 27.8827 119.648 27.162C119.366 26.4099 118.927 25.8615 118.332 25.5168C117.736 25.1407 117.016 24.9527 116.169 24.9527C115.417 24.9527 114.744 25.0937 114.148 25.3757C113.584 25.6578 113.098 26.0965 112.691 26.6919C112.315 27.256 112.017 27.9767 111.798 28.8542C111.61 29.7316 111.516 30.7814 111.516 32.0036C111.516 33.5705 111.688 34.918 112.033 36.0461C112.409 37.1743 112.957 38.036 113.678 38.6314C114.43 39.2269 115.37 39.5246 116.498 39.5246C117.658 39.5246 118.535 39.2425 119.131 38.6785C119.726 38.1144 120.118 37.4093 120.306 36.5632C120.494 35.6857 120.525 34.824 120.4 33.9778L127.404 34.3069C127.592 35.6857 127.529 37.0332 127.216 38.3494C126.902 39.6342 126.291 40.7937 125.383 41.8279C124.505 42.862 123.314 43.6768 121.81 44.2722C120.337 44.8676 118.535 45.1653 116.404 45.1653ZM129.851 44.5072V11.603H137.278V29.0422C138.344 28.4781 139.252 27.8357 140.004 27.115C140.788 26.3942 141.446 25.6264 141.979 24.8117C142.511 23.9656 142.934 23.1194 143.248 22.2733C143.593 21.3959 143.875 20.5341 144.094 19.688H152.837C152.492 20.9415 151.991 22.1637 151.333 23.3545C150.706 24.514 149.923 25.6108 148.983 26.6449C148.042 27.6477 146.946 28.5565 145.692 29.3713C144.47 30.186 143.107 30.8598 141.603 31.3925V31.7686C143.546 31.4552 145.128 31.4239 146.35 31.6746C147.604 31.8939 148.591 32.3326 149.312 32.9907C150.032 33.6175 150.581 34.4166 150.957 35.388C151.364 36.3595 151.678 37.4406 151.897 38.6314L152.978 44.5072H144.752L144.235 40.3707C144.11 39.3679 143.937 38.4278 143.718 37.5503C143.499 36.6729 143.075 35.9678 142.449 35.435C141.822 34.871 140.835 34.5889 139.487 34.5889H137.278V44.5072H129.851ZM165.979 45.1653C163.629 45.1653 161.654 44.8362 160.056 44.1782C158.489 43.4887 157.22 42.5643 156.249 41.4048C155.277 40.214 154.572 38.8665 154.133 37.3623C153.726 35.8581 153.522 34.2756 153.522 32.6147C153.522 30.8284 153.742 29.1206 154.18 27.491C154.65 25.8615 155.356 24.4199 156.296 23.1665C157.267 21.8816 158.505 20.8788 160.009 20.1581C161.545 19.406 163.378 19.0299 165.509 19.0299C167.64 19.0299 169.457 19.406 170.962 20.1581C172.497 20.8788 173.719 21.8973 174.628 23.2135C175.537 24.5296 176.117 26.0495 176.367 27.773C176.649 29.4966 176.618 31.3612 176.273 33.3668L158.27 33.6488V29.5123L170.445 29.2772L169.457 31.6746C169.645 30.233 169.614 29.0265 169.363 28.0551C169.144 27.0523 168.721 26.3002 168.094 25.7988C167.467 25.2661 166.606 24.9997 165.509 24.9997C164.349 24.9997 163.425 25.2974 162.736 25.8928C162.046 26.4882 161.56 27.3343 161.278 28.4311C160.996 29.4966 160.855 30.7658 160.855 32.2386C160.855 34.7769 161.278 36.6259 162.124 37.7853C162.971 38.9448 164.271 39.5246 166.026 39.5246C166.778 39.5246 167.405 39.4305 167.906 39.2425C168.408 39.0545 168.815 38.7881 169.128 38.4434C169.442 38.0674 169.661 37.6286 169.786 37.1273C169.912 36.5945 169.959 35.9991 169.927 35.341L176.884 35.7171C176.978 36.7512 176.869 37.8167 176.555 38.9135C176.273 40.0103 175.725 41.0288 174.91 41.9689C174.095 42.909 172.951 43.6768 171.479 44.2722C170.037 44.8676 168.204 45.1653 165.979 45.1653ZM179.52 44.5072V31.0165V19.688H186.1V29.5593H186.477C186.665 26.9269 187.025 24.8587 187.558 23.3545C188.122 21.8189 188.811 20.7378 189.626 20.1111C190.472 19.453 191.412 19.1239 192.446 19.1239C193.01 19.1239 193.59 19.2023 194.185 19.359C194.812 19.5157 195.423 19.7663 196.019 20.1111L195.643 28.5722C194.953 28.1648 194.28 27.8671 193.621 27.679C192.963 27.4597 192.337 27.35 191.741 27.35C190.738 27.35 189.892 27.632 189.203 28.1961C188.513 28.7602 187.981 29.5906 187.605 30.6874C187.26 31.7842 187.088 33.1161 187.088 34.6829V44.5072H179.52ZM208.877 45.1653C207.217 45.1653 205.665 44.9929 204.224 44.6482C202.814 44.3348 201.576 43.8178 200.51 43.097C199.476 42.3763 198.677 41.4205 198.113 40.2297C197.58 39.0075 197.361 37.5346 197.455 35.8111L204.083 35.247C204.146 36.2811 204.381 37.1429 204.788 37.8323C205.195 38.4904 205.759 38.9762 206.48 39.2895C207.201 39.6029 208.078 39.7596 209.112 39.7596C210.084 39.7596 210.914 39.6029 211.604 39.2895C212.325 38.9448 212.685 38.3807 212.685 37.5973C212.685 37.1899 212.56 36.8609 212.309 36.6102C212.058 36.3281 211.588 36.0775 210.899 35.8581C210.241 35.6074 209.269 35.3254 207.984 35.012C206.386 34.6046 204.945 34.1972 203.66 33.7898C202.375 33.3824 201.278 32.8967 200.369 32.3326C199.461 31.7686 198.771 31.0791 198.301 30.2644C197.831 29.4183 197.596 28.3841 197.596 27.162C197.596 25.4384 198.05 23.9812 198.959 22.7904C199.899 21.5682 201.184 20.6438 202.814 20.017C204.443 19.359 206.323 19.0299 208.454 19.0299C210.366 19.0299 212.152 19.3276 213.813 19.923C215.474 20.5184 216.774 21.4899 217.715 22.8374C218.686 24.1849 219.046 25.9711 218.796 28.1961L212.309 28.8072C212.403 27.8984 212.278 27.1306 211.933 26.5039C211.588 25.8458 211.087 25.3601 210.429 25.0467C209.771 24.702 208.971 24.5296 208.031 24.5296C206.966 24.5296 206.135 24.7333 205.54 25.1407C204.976 25.5168 204.694 26.0025 204.694 26.5979C204.694 27.068 204.866 27.4753 205.211 27.8201C205.587 28.1334 206.151 28.4155 206.903 28.6662C207.687 28.8855 208.689 29.1362 209.912 29.4183C210.977 29.6376 212.09 29.9197 213.249 30.2644C214.409 30.6091 215.49 31.0791 216.492 31.6746C217.495 32.2386 218.31 32.9907 218.937 33.9308C219.564 34.871 219.877 36.0618 219.877 37.5033C219.877 39.0388 219.454 40.3863 218.608 41.5458C217.762 42.7053 216.524 43.5984 214.894 44.2252C213.265 44.8519 211.259 45.1653 208.877 45.1653Z" fill="#ED5724"/>
<path fill-rule="evenodd" clip-rule="evenodd" d="M48.8756 32.2602C50.1531 30.9826 51 29.3067 51 27.5C51 13.4167 39.5833 2 25.5 2C11.4167 2 0 13.4167 0 27.5C0 41.5833 11.4167 53 25.5 53C27.3067 53 28.9826 52.1531 30.2602 50.8756L48.8756 32.2602Z" fill="#FAE07B"/>
<path d="M25.3286 45.8145C20.3945 45.8145 15.6624 43.8544 12.1734 40.3654C8.68445 36.8764 6.72437 32.1444 6.72437 27.2102C6.72437 22.2761 8.68445 17.544 12.1734 14.055C15.6624 10.566 20.3945 8.60596 25.3286 8.60596C30.2628 8.60596 34.9948 10.566 38.4838 14.055C41.9728 17.544 43.9329 22.2761 43.9329 27.2102" stroke="#ED5724" stroke-width="3.81626" stroke-linecap="round" stroke-linejoin="round"/>
<path d="M43.4559 27.5777C37.9431 25.5514 31.5274 27.2105 27.743 32.1033C24.722 36.0091 24.117 41.0197 25.6983 45.3374" stroke="#ED5724" stroke-width="3.81626" stroke-linecap="round" stroke-linejoin="round"/>
<path d="M25.8057 45.8144L43.9329 27.6871" stroke="#ED5724" stroke-width="3.33923" stroke-linecap="round" stroke-linejoin="round"/>
</svg>
