<svg width="107" height="98" viewBox="0 0 107 98" fill="none" xmlns="http://www.w3.org/2000/svg">
<path d="M59.5626 30.6045C57.074 19.5966 44.7683 11.8099 32.3948 14.6072C20.027 17.4033 12.2732 29.725 14.7618 40.7329C17.2492 51.7352 30.0261 61.6065 42.3884 58.8116C54.7619 56.0143 62.0444 41.6081 59.557 30.6057L59.5626 30.6045Z" fill="#C5E7FF"/>
<path d="M42.5444 58.7764L37.4826 68.7788C37.237 69.2629 37.1343 69.8069 37.1867 70.3472C37.2391 70.8875 37.4443 71.4017 37.7783 71.8296C38.1123 72.2575 38.5613 72.5814 39.0727 72.7634C39.5841 72.9454 40.1368 72.9779 40.666 72.8572L50.1022 70.7239C50.6276 70.6052 51.1087 70.3404 51.4901 69.9601C51.8715 69.5797 52.1377 69.0993 52.2578 68.5743C52.3779 68.0492 52.3472 67.5008 52.1692 66.9925C51.9911 66.4841 51.673 66.0365 51.2515 65.7011L42.5389 58.7776L42.5444 58.7764Z" fill="#C5E7FF"/>
<path d="M45.8137 73.9372C50.3358 88.6273 62.945 83.8668 67.7665 78.9688C75.9225 70.6806 81.8838 67.6632 93.3318 66.0066" stroke="#C5E7FF" stroke-width="27" stroke-linecap="round" stroke-linejoin="round"/>
<path d="M59.5626 30.6045C57.074 19.5966 44.7683 11.8099 32.3948 14.6072C20.027 17.4033 12.2732 29.725 14.7618 40.7329C17.2492 51.7352 30.0261 61.6065 42.3884 58.8116C54.7619 56.0143 62.0444 41.6081 59.557 30.6057L59.5626 30.6045Z" stroke="#C5E7FF" stroke-width="27" stroke-linecap="round" stroke-linejoin="round"/>
<path d="M42.5444 58.7764L37.4826 68.7788C37.237 69.2629 37.1343 69.8069 37.1867 70.3472C37.2391 70.8875 37.4443 71.4017 37.7783 71.8296C38.1123 72.2575 38.5613 72.5814 39.0727 72.7634C39.5841 72.9454 40.1368 72.9779 40.666 72.8572L50.1022 70.7239C50.6276 70.6052 51.1087 70.3404 51.4901 69.9601C51.8715 69.5797 52.1377 69.0993 52.2578 68.5743C52.3779 68.0492 52.3472 67.5008 52.1692 66.9925C51.9911 66.4841 51.673 66.0365 51.2515 65.7011L42.5389 58.7776L42.5444 58.7764Z" stroke="#C5E7FF" stroke-width="27" stroke-linecap="round" stroke-linejoin="round"/>
<path d="M59.5626 30.6045C57.074 19.5966 44.7683 11.8099 32.3948 14.6072C20.027 17.4033 12.2732 29.725 14.7618 40.7329C17.2492 51.7352 30.0261 61.6065 42.3884 58.8116C54.7619 56.0143 62.0444 41.6081 59.557 30.6057L59.5626 30.6045Z" fill="#C5E7FF"/>
<path d="M42.5444 58.7764L37.4826 68.7788C37.237 69.2629 37.1343 69.8069 37.1867 70.3472C37.2391 70.8875 37.4443 71.4017 37.7783 71.8296C38.1123 72.2575 38.5613 72.5814 39.0727 72.7634C39.5841 72.9454 40.1368 72.9779 40.666 72.8572L50.1022 70.7239C50.6276 70.6052 51.1087 70.3404 51.4901 69.9601C51.8715 69.5797 52.1377 69.0993 52.2578 68.5743C52.3779 68.0492 52.3472 67.5008 52.1692 66.9925C51.9911 66.4841 51.673 66.0365 51.2515 65.7011L42.5389 58.7776L42.5444 58.7764Z" fill="#C5E7FF"/>
<path d="M45.8137 73.9372C50.3358 88.6273 62.945 83.8668 67.7665 78.9688C75.9225 70.6806 81.8838 67.6632 93.3318 66.0066" stroke="#C5E7FF" stroke-width="25" stroke-linecap="round" stroke-linejoin="round"/>
<path d="M59.5626 30.6045C57.074 19.5966 44.7683 11.8099 32.3948 14.6072C20.027 17.4033 12.2732 29.725 14.7618 40.7329C17.2492 51.7352 30.0261 61.6065 42.3884 58.8116C54.7619 56.0143 62.0444 41.6081 59.557 30.6057L59.5626 30.6045Z" stroke="#C5E7FF" stroke-width="25" stroke-linecap="round" stroke-linejoin="round"/>
<path d="M42.5444 58.7764L37.4826 68.7788C37.237 69.2629 37.1343 69.8069 37.1867 70.3472C37.2391 70.8875 37.4443 71.4017 37.7783 71.8296C38.1123 72.2575 38.5613 72.5814 39.0727 72.7634C39.5841 72.9454 40.1368 72.9779 40.666 72.8572L50.1022 70.7239C50.6276 70.6052 51.1087 70.3404 51.4901 69.9601C51.8715 69.5797 52.1377 69.0993 52.2578 68.5743C52.3779 68.0492 52.3472 67.5008 52.1692 66.9925C51.9911 66.4841 51.673 66.0365 51.2515 65.7011L42.5389 58.7776L42.5444 58.7764Z" stroke="#C5E7FF" stroke-width="25" stroke-linecap="round" stroke-linejoin="round"/>
<path d="M59.5626 30.6045C57.074 19.5966 44.7683 11.8099 32.3948 14.6072C20.027 17.4033 12.2732 29.725 14.7618 40.7329C17.2492 51.7352 30.0261 61.6065 42.3884 58.8116C54.7619 56.0143 62.0444 41.6081 59.557 30.6057L59.5626 30.6045Z" fill="#C5E7FF"/>
<path d="M42.5444 58.7764L37.4826 68.7788C37.237 69.2629 37.1343 69.8069 37.1867 70.3472C37.2391 70.8875 37.4443 71.4017 37.7783 71.8296C38.1123 72.2575 38.5613 72.5814 39.0727 72.7634C39.5841 72.9454 40.1368 72.9779 40.666 72.8572L50.1022 70.7239C50.6276 70.6052 51.1087 70.3404 51.4901 69.9601C51.8715 69.5797 52.1377 69.0993 52.2578 68.5743C52.3779 68.0492 52.3472 67.5008 52.1692 66.9925C51.9911 66.4841 51.673 66.0365 51.2515 65.7011L42.5389 58.7776L42.5444 58.7764Z" fill="#C5E7FF"/>
<path d="M45.8137 73.9372C50.3358 88.6273 62.945 83.8668 67.7665 78.9688C75.9225 70.6806 81.8838 67.6632 93.3318 66.0066" stroke="#065C6A" stroke-width="5" stroke-linecap="round" stroke-linejoin="round"/>
<path d="M59.5626 30.6045C57.074 19.5966 44.7683 11.8099 32.3948 14.6072C20.027 17.4033 12.2732 29.725 14.7618 40.7329C17.2492 51.7352 30.0261 61.6065 42.3884 58.8116C54.7619 56.0143 62.0444 41.6081 59.557 30.6057L59.5626 30.6045Z" stroke="#065C6A" stroke-width="5" stroke-linecap="round" stroke-linejoin="round"/>
<path d="M42.5444 58.7764L37.4826 68.7788C37.237 69.2629 37.1343 69.8069 37.1867 70.3472C37.2391 70.8875 37.4443 71.4017 37.7783 71.8296C38.1123 72.2575 38.5613 72.5814 39.0727 72.7634C39.5841 72.9454 40.1368 72.9779 40.666 72.8572L50.1022 70.7239C50.6276 70.6052 51.1087 70.3404 51.4901 69.9601C51.8715 69.5797 52.1377 69.0993 52.2578 68.5743C52.3779 68.0492 52.3472 67.5008 52.1692 66.9925C51.9911 66.4841 51.673 66.0365 51.2515 65.7011L42.5389 58.7776L42.5444 58.7764Z" stroke="#065C6A" stroke-width="5" stroke-linecap="round" stroke-linejoin="round"/>
</svg>
