<svg width="121" height="114" viewBox="0 0 121 114" fill="none" xmlns="http://www.w3.org/2000/svg">
<rect x="17.132" y="83.867" width="33" height="23" transform="rotate(-18.8592 17.132 83.867)" fill="#BCF09C"/>
<rect x="81.6707" y="61.8218" width="33" height="23" transform="rotate(-18.8592 81.6707 61.8218)" fill="#BCF09C"/>
<path d="M94.3803 79.9736L107.072 75.6384L100.599 56.6905L91.8177 59.6902C90.5077 60.139 89.0793 60.0968 87.798 59.5715C86.5168 59.0462 85.4699 58.0735 84.852 56.8342L72.7451 32.4924C72.0128 31.0221 70.749 29.8852 69.2098 29.3118C67.6706 28.7385 65.971 28.7716 64.4552 29.4045C62.9395 30.0374 61.721 31.2227 61.0466 32.7204C60.3721 34.2181 60.2921 35.9161 60.8228 37.4706L66.3678 53.7039C65.654 53.9428 64.9981 54.3283 64.4423 54.8358C63.8864 55.3433 63.4429 55.9615 63.1403 56.6507C62.8377 57.3399 62.6826 58.0847 62.6851 58.8374C62.6876 59.5901 62.8476 60.3339 63.1548 61.021L66.117 67.66C68.4419 72.8691 72.6305 77.0206 77.8602 79.2991C83.0898 81.5775 88.9824 81.8181 94.3803 79.9736Z" fill="#BCF09C"/>
<path d="M49.4654 95.3157L36.774 99.6509L30.3017 80.7029L39.0835 77.7032C40.3943 77.2568 41.4984 76.3495 42.1905 75.1501C42.8826 73.9508 43.1157 72.5409 42.8463 71.1826L37.5313 44.5207C37.2111 42.9097 37.5152 41.2372 38.382 39.842C39.2488 38.4468 40.6135 37.4332 42.1997 37.0066C43.7858 36.5799 45.4748 36.7721 46.9246 37.5442C48.3744 38.3163 49.4765 39.6105 50.0077 41.1648L55.5527 57.3981C56.2635 57.1504 57.0182 57.0541 57.7684 57.1155C58.5185 57.1769 59.2476 57.3946 59.9086 57.7546C60.5695 58.1146 61.1479 58.6089 61.6064 59.2059C62.0649 59.8028 62.3934 60.489 62.5708 61.2205L64.2856 68.2915C65.6316 73.8329 64.8576 79.6773 62.1156 84.6773C59.3736 89.6773 54.8616 93.4717 49.4654 95.3157Z" fill="#BCF09C"/>
<path d="M47.9104 17.3469L49.7575 22.7544" stroke="#BCF09C" stroke-width="27" stroke-linecap="round" stroke-linejoin="round"/>
<path d="M65.9801 17.2131L67.7603 13.5858" stroke="#BCF09C" stroke-width="27" stroke-linecap="round" stroke-linejoin="round"/>
<path d="M33.535 28.2958L29.9077 26.5156" stroke="#BCF09C" stroke-width="27" stroke-linecap="round" stroke-linejoin="round"/>
<path d="M107.072 75.6385L94.3803 79.9736C88.9823 81.8181 83.0897 81.5775 77.8601 79.2991C72.6305 77.0207 68.4418 72.8691 66.1169 67.66L63.1566 61.0265C62.7389 60.092 62.5956 59.0579 62.7436 58.045C62.8917 57.0321 63.3248 56.0822 63.9925 55.3063C64.5634 54.6421 65.2875 54.1268 66.1022 53.8051C66.9169 53.4834 67.7976 53.3649 68.6683 53.4599C69.5391 53.5548 70.3736 53.8604 71.0998 54.3502C71.8259 54.8399 72.4219 55.4992 72.8362 56.2709L77.3545 64.6547" stroke="#BCF09C" stroke-width="27" stroke-linecap="round" stroke-linejoin="round"/>
<path d="M100.601 56.6959L91.8195 59.6956C90.5086 60.1445 89.0793 60.1017 87.7976 59.5754C86.5158 59.049 85.469 58.0748 84.852 56.8342L72.7451 32.4923C72.2415 31.4814 71.4822 30.6198 70.5427 29.9931C69.6031 29.3664 68.5159 28.9963 67.3891 28.9197C66.2623 28.8431 65.1351 29.0626 64.1193 29.5564C63.1036 30.0502 62.2347 30.8011 61.5989 31.7346C60.4531 33.4182 60.1652 35.5455 60.8228 37.4705L66.2422 53.3362" stroke="#BCF09C" stroke-width="27" stroke-linecap="round" stroke-linejoin="round"/>
<path d="M36.7741 99.6509L49.4655 95.3157C54.8639 93.4724 59.3779 89.6771 62.1207 84.6754C64.8636 79.6737 65.6371 73.8272 64.2893 68.2843L62.5727 61.2259C62.3315 60.2311 61.8121 59.3255 61.0754 58.6148C60.3386 57.9042 59.4149 57.4178 58.412 57.2125C57.554 57.0364 56.666 57.0718 55.8248 57.3157C54.9836 57.5596 54.2144 58.0047 53.5837 58.6125C52.953 59.2203 52.4798 59.9726 52.205 60.8043C51.9303 61.6359 51.8621 62.522 52.0065 63.3859L53.5615 72.782" stroke="#BCF09C" stroke-width="27" stroke-linecap="round" stroke-linejoin="round"/>
<path d="M30.3017 80.703L39.0835 77.7032C40.3951 77.2563 41.4996 76.3481 42.1914 75.1476C42.8833 73.9471 43.1154 72.5361 42.8445 71.1772L37.5313 44.5208C37.3102 43.4128 37.3829 42.2663 37.7421 41.1952C38.1013 40.124 38.7346 39.1655 39.579 38.4149C40.4234 37.6643 41.4495 37.1477 42.5554 36.9165C43.6613 36.6853 44.8084 36.7475 45.8828 37.0969C47.8192 37.7277 49.3483 39.2343 50.0059 41.1594L55.4253 57.025" stroke="#BCF09C" stroke-width="27" stroke-linecap="round" stroke-linejoin="round"/>
<path d="M94.3803 79.9736L107.072 75.6384L100.599 56.6905L91.8177 59.6902C90.5077 60.139 89.0793 60.0968 87.798 59.5715C86.5168 59.0462 85.4699 58.0735 84.852 56.8342L72.7451 32.4924C72.0128 31.0221 70.749 29.8852 69.2098 29.3118C67.6706 28.7385 65.971 28.7716 64.4552 29.4045C62.9395 30.0374 61.721 31.2227 61.0466 32.7204C60.3721 34.2181 60.2921 35.9161 60.8228 37.4706L66.3678 53.7039C65.654 53.9428 64.9981 54.3283 64.4423 54.8358C63.8864 55.3433 63.4429 55.9615 63.1403 56.6507C62.8377 57.3399 62.6826 58.0847 62.6851 58.8374C62.6876 59.5901 62.8476 60.3339 63.1548 61.021L66.117 67.66C68.4419 72.8691 72.6305 77.0206 77.8602 79.2991C83.0898 81.5775 88.9824 81.8181 94.3803 79.9736Z" fill="#BCF09C"/>
<path d="M49.4654 95.3157L36.774 99.6509L30.3017 80.7029L39.0835 77.7032C40.3943 77.2568 41.4984 76.3495 42.1905 75.1501C42.8826 73.9508 43.1157 72.5409 42.8463 71.1826L37.5313 44.5207C37.2111 42.9097 37.5152 41.2372 38.382 39.842C39.2488 38.4468 40.6135 37.4332 42.1997 37.0066C43.7858 36.5799 45.4748 36.7721 46.9246 37.5442C48.3744 38.3163 49.4765 39.6105 50.0077 41.1648L55.5527 57.3981C56.2635 57.1504 57.0182 57.0541 57.7684 57.1155C58.5185 57.1769 59.2476 57.3946 59.9086 57.7546C60.5695 58.1146 61.1479 58.6089 61.6064 59.2059C62.0649 59.8028 62.3934 60.489 62.5708 61.2205L64.2856 68.2915C65.6316 73.8329 64.8576 79.6773 62.1156 84.6773C59.3736 89.6773 54.8616 93.4717 49.4654 95.3157Z" fill="#BCF09C"/>
<path d="M47.9104 17.3469L49.7575 22.7544" stroke="#BCF09C" stroke-width="25" stroke-linecap="round" stroke-linejoin="round"/>
<path d="M65.9801 17.2131L67.7603 13.5858" stroke="#BCF09C" stroke-width="25" stroke-linecap="round" stroke-linejoin="round"/>
<path d="M33.535 28.2958L29.9077 26.5156" stroke="#BCF09C" stroke-width="25" stroke-linecap="round" stroke-linejoin="round"/>
<path d="M107.072 75.6385L94.3803 79.9736C88.9823 81.8181 83.0897 81.5775 77.8601 79.2991C72.6305 77.0207 68.4418 72.8691 66.1169 67.66L63.1566 61.0265C62.7389 60.092 62.5956 59.0579 62.7436 58.045C62.8917 57.0321 63.3248 56.0822 63.9925 55.3063C64.5634 54.6421 65.2875 54.1268 66.1022 53.8051C66.9169 53.4834 67.7976 53.3649 68.6683 53.4599C69.5391 53.5548 70.3736 53.8604 71.0998 54.3502C71.8259 54.8399 72.4219 55.4992 72.8362 56.2709L77.3545 64.6547" stroke="#BCF09C" stroke-width="25" stroke-linecap="round" stroke-linejoin="round"/>
<path d="M100.601 56.6959L91.8195 59.6956C90.5086 60.1445 89.0793 60.1017 87.7976 59.5754C86.5158 59.049 85.469 58.0748 84.852 56.8342L72.7451 32.4923C72.2415 31.4814 71.4822 30.6198 70.5427 29.9931C69.6031 29.3664 68.5159 28.9963 67.3891 28.9197C66.2623 28.8431 65.1351 29.0626 64.1193 29.5564C63.1036 30.0502 62.2347 30.8011 61.5989 31.7346C60.4531 33.4182 60.1652 35.5455 60.8228 37.4705L66.2422 53.3362" stroke="#BCF09C" stroke-width="25" stroke-linecap="round" stroke-linejoin="round"/>
<path d="M36.7741 99.6509L49.4655 95.3157C54.8639 93.4724 59.3779 89.6771 62.1207 84.6754C64.8636 79.6737 65.6371 73.8272 64.2893 68.2843L62.5727 61.2259C62.3315 60.2311 61.8121 59.3255 61.0754 58.6148C60.3386 57.9042 59.4149 57.4178 58.412 57.2125C57.554 57.0364 56.666 57.0718 55.8248 57.3157C54.9836 57.5596 54.2144 58.0047 53.5837 58.6125C52.953 59.2203 52.4798 59.9726 52.205 60.8043C51.9303 61.6359 51.8621 62.522 52.0065 63.3859L53.5615 72.782" stroke="#BCF09C" stroke-width="25" stroke-linecap="round" stroke-linejoin="round"/>
<path d="M30.3017 80.703L39.0835 77.7032C40.3951 77.2563 41.4996 76.3481 42.1914 75.1476C42.8833 73.9471 43.1154 72.5361 42.8445 71.1772L37.5313 44.5208C37.3102 43.4128 37.3829 42.2663 37.7421 41.1952C38.1013 40.124 38.7346 39.1655 39.579 38.4149C40.4234 37.6643 41.4495 37.1477 42.5554 36.9165C43.6613 36.6853 44.8084 36.7475 45.8828 37.0969C47.8192 37.7277 49.3483 39.2343 50.0059 41.1594L55.4253 57.025" stroke="#BCF09C" stroke-width="25" stroke-linecap="round" stroke-linejoin="round"/>
<path d="M94.3803 79.9736L107.072 75.6384L100.599 56.6905L91.8177 59.6902C90.5077 60.139 89.0793 60.0968 87.798 59.5715C86.5168 59.0462 85.4699 58.0735 84.852 56.8342L72.7451 32.4924C72.0128 31.0221 70.749 29.8852 69.2098 29.3118C67.6706 28.7385 65.971 28.7716 64.4552 29.4045C62.9395 30.0374 61.721 31.2227 61.0466 32.7204C60.3721 34.2181 60.2921 35.9161 60.8228 37.4706L66.3678 53.7039C65.654 53.9428 64.9981 54.3283 64.4423 54.8358C63.8864 55.3433 63.4429 55.9615 63.1403 56.6507C62.8377 57.3399 62.6826 58.0847 62.6851 58.8374C62.6876 59.5901 62.8476 60.3339 63.1548 61.021L66.117 67.66C68.4419 72.8691 72.6305 77.0206 77.8602 79.2991C83.0898 81.5775 88.9824 81.8181 94.3803 79.9736Z" fill="#BCF09C"/>
<path d="M49.4654 95.3157L36.774 99.6509L30.3017 80.7029L39.0835 77.7032C40.3943 77.2568 41.4984 76.3495 42.1905 75.1501C42.8826 73.9508 43.1157 72.5409 42.8463 71.1826L37.5313 44.5207C37.2111 42.9097 37.5152 41.2372 38.382 39.842C39.2488 38.4468 40.6135 37.4332 42.1997 37.0066C43.7858 36.5799 45.4748 36.7721 46.9246 37.5442C48.3744 38.3163 49.4765 39.6105 50.0077 41.1648L55.5527 57.3981C56.2635 57.1504 57.0182 57.0541 57.7684 57.1155C58.5185 57.1769 59.2476 57.3946 59.9086 57.7546C60.5695 58.1146 61.1479 58.6089 61.6064 59.2059C62.0649 59.8028 62.3934 60.489 62.5708 61.2205L64.2856 68.2915C65.6316 73.8329 64.8576 79.6773 62.1156 84.6773C59.3736 89.6773 54.8616 93.4717 49.4654 95.3157Z" fill="#BCF09C"/>
<path d="M47.9104 17.3469L49.7575 22.7544" stroke="#06630A" stroke-width="5" stroke-linecap="round" stroke-linejoin="round"/>
<path d="M65.9801 17.2131L67.7603 13.5858" stroke="#06630A" stroke-width="5" stroke-linecap="round" stroke-linejoin="round"/>
<path d="M33.535 28.2958L29.9077 26.5156" stroke="#06630A" stroke-width="5" stroke-linecap="round" stroke-linejoin="round"/>
<path d="M107.072 75.6385L94.3803 79.9736C88.9823 81.8181 83.0897 81.5775 77.8601 79.2991C72.6305 77.0207 68.4418 72.8691 66.1169 67.66L63.1566 61.0265C62.7389 60.092 62.5956 59.0579 62.7436 58.045C62.8917 57.0321 63.3248 56.0822 63.9925 55.3063C64.5634 54.6421 65.2875 54.1268 66.1022 53.8051C66.9169 53.4834 67.7976 53.3649 68.6683 53.4599C69.5391 53.5548 70.3736 53.8604 71.0998 54.3502C71.8259 54.8399 72.4219 55.4992 72.8362 56.2709L77.3545 64.6547" stroke="#06630A" stroke-width="5" stroke-linecap="round" stroke-linejoin="round"/>
<path d="M100.601 56.6959L91.8195 59.6956C90.5086 60.1445 89.0793 60.1017 87.7976 59.5754C86.5158 59.049 85.469 58.0748 84.852 56.8342L72.7451 32.4923C72.2415 31.4814 71.4822 30.6198 70.5427 29.9931C69.6031 29.3664 68.5159 28.9963 67.3891 28.9197C66.2623 28.8431 65.1351 29.0626 64.1193 29.5564C63.1036 30.0502 62.2347 30.8011 61.5989 31.7346C60.4531 33.4182 60.1652 35.5455 60.8228 37.4705L66.2422 53.3362" stroke="#06630A" stroke-width="5" stroke-linecap="round" stroke-linejoin="round"/>
<path d="M36.7741 99.6509L49.4655 95.3157C54.8639 93.4724 59.3779 89.6771 62.1207 84.6754C64.8636 79.6737 65.6371 73.8272 64.2893 68.2843L62.5727 61.2259C62.3315 60.2311 61.8121 59.3255 61.0754 58.6148C60.3386 57.9042 59.4149 57.4178 58.412 57.2125C57.554 57.0364 56.666 57.0718 55.8248 57.3157C54.9836 57.5596 54.2144 58.0047 53.5837 58.6125C52.953 59.2203 52.4798 59.9726 52.205 60.8043C51.9303 61.6359 51.8621 62.522 52.0065 63.3859L53.5615 72.782" stroke="#06630A" stroke-width="5" stroke-linecap="round" stroke-linejoin="round"/>
<path d="M30.3017 80.703L39.0835 77.7032C40.3951 77.2563 41.4996 76.3481 42.1914 75.1476C42.8833 73.9471 43.1154 72.5361 42.8445 71.1772L37.5313 44.5208C37.3102 43.4128 37.3829 42.2663 37.7421 41.1952C38.1013 40.124 38.7346 39.1655 39.579 38.4149C40.4234 37.6643 41.4495 37.1477 42.5554 36.9165C43.6613 36.6853 44.8084 36.7475 45.8828 37.0969C47.8192 37.7277 49.3483 39.2343 50.0059 41.1594L55.4253 57.025" stroke="#06630A" stroke-width="5" stroke-linecap="round" stroke-linejoin="round"/>
</svg>
