<svg width="101" height="109" viewBox="0 0 101 109" fill="none" xmlns="http://www.w3.org/2000/svg">
<rect x="43.8809" y="33.5433" width="15.1402" height="24.8732" transform="rotate(-5.42382 43.8809 33.5433)" fill="#C5E7FF"/>
<path d="M42.4994 60.8469L14.0102 94.9153" stroke="#C5E7FF" stroke-width="27.0361" stroke-linecap="round" stroke-linejoin="round"/>
<path d="M48.9842 66.8001L48.1066 67.8564C43.859 72.9693 44.5607 80.5022 49.6796 84.7424L51.8868 86.5703" stroke="#C5E7FF" stroke-width="27.0361" stroke-linecap="round" stroke-linejoin="round"/>
<path d="M53.502 27.0405L74.0133 43.7982L58.0863 69.1427C57.1109 70.6947 54.9768 71.0425 53.5551 69.8809L31.4361 51.8097C30.0144 50.6482 29.9581 48.511 31.3168 47.272L53.502 27.0405Z" stroke="#C5E7FF" stroke-width="27.0361" stroke-linecap="round" stroke-linejoin="round"/>
<path d="M50.7269 24.7728C50.2202 24.3614 49.8119 23.8504 49.5459 23.2949C49.2799 22.7393 49.1663 22.1602 49.2172 21.6197C49.2388 21.0652 49.4253 20.5631 49.7567 20.1668C50.0881 19.7704 50.552 19.4949 51.0989 19.3696L77.3049 14.4232C77.8121 14.3231 78.3686 14.3548 78.9239 14.5154C79.4792 14.6759 80.0156 14.9601 80.4828 15.3418C80.9495 15.7235 81.333 16.1904 81.5969 16.6993C81.8613 17.2082 81.9978 17.7427 81.9936 18.2536L82.0901 44.6896C82.0687 45.244 81.8825 45.7462 81.5509 46.1425C81.2193 46.5388 80.7557 46.8143 80.2086 46.9397C79.6954 47.087 79.1159 47.0899 78.5293 46.9481C77.9434 46.8063 77.3711 46.5248 76.871 46.1325L50.7269 24.7728Z" stroke="#C5E7FF" stroke-width="27.0361" stroke-linecap="round" stroke-linejoin="round"/>
<path d="M68.2286 74.4881L71.2242 76.9355" stroke="#C5E7FF" stroke-width="27.0361" stroke-linecap="round" stroke-linejoin="round"/>
<path d="M85.2238 72.8745L82.7424 75.8418" stroke="#C5E7FF" stroke-width="27.0361" stroke-linecap="round" stroke-linejoin="round"/>
<path d="M69.6664 89.631L72.1478 86.6637" stroke="#C5E7FF" stroke-width="27.0361" stroke-linecap="round" stroke-linejoin="round"/>
<path d="M86.6617 88.0174L83.6661 85.57" stroke="#C5E7FF" stroke-width="27.0361" stroke-linecap="round" stroke-linejoin="round"/>
<path d="M42.4994 60.8469L14.0102 94.9153" stroke="#065C6A" stroke-width="5.40721" stroke-linecap="round" stroke-linejoin="round"/>
<path d="M48.9842 66.8001L48.1066 67.8564C43.859 72.9693 44.5607 80.5022 49.6796 84.7424L51.8868 86.5703" stroke="#065C6A" stroke-width="5.40721" stroke-linecap="round" stroke-linejoin="round"/>
<path d="M53.502 27.0405L74.0133 43.7982L58.0863 69.1427C57.1109 70.6947 54.9768 71.0425 53.5551 69.8809L31.4361 51.8097C30.0144 50.6482 29.9581 48.511 31.3168 47.272L53.502 27.0405Z" stroke="#065C6A" stroke-width="5.40721" stroke-linecap="round" stroke-linejoin="round"/>
<path d="M50.7269 24.7728C50.2202 24.3614 49.8119 23.8504 49.5459 23.2949C49.2799 22.7393 49.1663 22.1602 49.2172 21.6197C49.2388 21.0652 49.4253 20.5631 49.7567 20.1668C50.0881 19.7704 50.552 19.4949 51.0989 19.3696L77.3049 14.4232C77.8121 14.3231 78.3686 14.3548 78.9239 14.5154C79.4792 14.6759 80.0156 14.9601 80.4828 15.3418C80.9495 15.7235 81.333 16.1904 81.5969 16.6993C81.8613 17.2082 81.9978 17.7427 81.9936 18.2536L82.0901 44.6896C82.0687 45.244 81.8825 45.7462 81.5509 46.1425C81.2193 46.5388 80.7557 46.8143 80.2086 46.9397C79.6954 47.087 79.1159 47.0899 78.5293 46.9481C77.9434 46.8063 77.3711 46.5248 76.871 46.1325L50.7269 24.7728Z" stroke="#065C6A" stroke-width="5.40721" stroke-linecap="round" stroke-linejoin="round"/>
<path d="M68.2286 74.4881L71.2242 76.9355" stroke="#065C6A" stroke-width="5.40721" stroke-linecap="round" stroke-linejoin="round"/>
<path d="M85.2238 72.8745L82.7424 75.8418" stroke="#065C6A" stroke-width="5.40721" stroke-linecap="round" stroke-linejoin="round"/>
<path d="M69.6664 89.631L72.1478 86.6637" stroke="#065C6A" stroke-width="5.40721" stroke-linecap="round" stroke-linejoin="round"/>
<path d="M86.6617 88.0174L83.6661 85.57" stroke="#065C6A" stroke-width="5.40721" stroke-linecap="round" stroke-linejoin="round"/>
</svg>
