<svg width="221" height="57" viewBox="0 0 221 57" fill="none" xmlns="http://www.w3.org/2000/svg">
<path d="M61.0548 45.1654C58.8612 45.1654 56.9339 44.9147 55.2731 44.4133C53.6435 43.9119 52.2803 43.1912 51.1835 42.251C50.0867 41.3109 49.272 40.1828 48.7392 38.8666C48.2378 37.5191 48.0185 36.0306 48.0811 34.401L55.132 32.8498C55.1947 34.2913 55.4924 35.4665 56.0252 36.3753C56.5892 37.2527 57.3413 37.9108 58.2815 38.3495C59.2216 38.7569 60.2714 38.9606 61.4309 38.9606C62.371 38.9606 63.2014 38.8509 63.9222 38.6316C64.6429 38.3809 65.207 38.0518 65.6144 37.6444C66.0531 37.2057 66.2725 36.7043 66.2725 36.1402C66.2725 35.3882 65.9904 34.7771 65.4264 34.307C64.8623 33.8056 64.0789 33.3826 63.0761 33.0378C62.1046 32.6931 60.9921 32.3484 59.7386 32.0037C58.3911 31.6277 57.0436 31.2203 55.6961 30.7816C54.38 30.3115 53.1735 29.7318 52.0767 29.0423C50.9798 28.3529 50.0867 27.4598 49.3973 26.363C48.7392 25.2662 48.4102 23.903 48.4102 22.2735C48.4102 20.2679 48.9116 18.56 49.9144 17.1498C50.9485 15.7396 52.3587 14.6741 54.1449 13.9534C55.9625 13.2013 58.0308 12.8252 60.3497 12.8252C62.794 12.8252 64.972 13.2483 66.8836 14.0944C68.7951 14.9092 70.268 16.1157 71.3021 17.7139C72.3363 19.3121 72.7436 21.2707 72.5243 23.5896L65.5674 24.7178C65.5987 23.7777 65.5047 22.9472 65.2854 22.2265C65.066 21.5057 64.7213 20.8946 64.2512 20.3932C63.8125 19.8918 63.2484 19.5158 62.559 19.2651C61.8696 18.983 61.0548 18.842 60.1147 18.842C59.1432 18.842 58.3285 18.9674 57.6704 19.2181C57.0436 19.4688 56.5579 19.8135 56.2132 20.2522C55.8998 20.6909 55.7431 21.1923 55.7431 21.7564C55.7431 22.4145 55.9938 22.9629 56.4952 23.4016C56.9966 23.8403 57.7174 24.232 58.6575 24.5768C59.5976 24.8901 60.7101 25.2192 61.9949 25.5639C63.3424 25.9399 64.6899 26.363 66.0375 26.833C67.4163 27.2718 68.6855 27.8672 69.8449 28.6193C71.0044 29.34 71.9289 30.2802 72.6183 31.4396C73.3391 32.5991 73.6994 34.072 73.6994 35.8582C73.6994 37.9265 73.151 39.65 72.0542 41.0289C70.9888 42.4077 69.5002 43.4419 67.5887 44.1313C65.7084 44.8207 63.5305 45.1654 61.0548 45.1654ZM86.1072 45.0714C84.0703 45.0714 82.4564 44.758 81.2656 44.1313C80.1061 43.4732 79.2443 42.6584 78.6802 41.687C78.1475 40.7155 77.8028 39.7127 77.6461 38.6786C77.5208 37.6131 77.4581 36.6887 77.4581 35.9052V25.6109H74.7317V20.8163H74.8728C76.8157 20.5656 78.1945 19.9232 79.0093 18.889C79.8241 17.8236 80.3255 16.2253 80.5135 14.0944V14.0004H84.9791V19.6881H90.6668V25.7989H84.9791V35.2001C84.9791 36.3909 85.2611 37.2371 85.8252 37.7385C86.4206 38.2399 87.1413 38.4905 87.9874 38.4905C88.4262 38.4905 88.8806 38.4279 89.3506 38.3025C89.8207 38.1772 90.2594 38.0048 90.6668 37.7855V44.4133C89.6953 44.6953 88.8335 44.8677 88.0815 44.9304C87.3294 45.0244 86.6713 45.0714 86.1072 45.0714ZM93.4949 44.5073V19.6881H101.11V44.5073H93.4949ZM97.2553 17.9019C95.8138 17.9019 94.7013 17.6042 93.9179 17.0088C93.1658 16.382 92.7898 15.4889 92.7898 14.3294C92.7898 13.1386 93.1658 12.2455 93.9179 11.6501C94.7013 11.0233 95.8138 10.71 97.2553 10.71C98.7282 10.71 99.8407 11.0233 100.593 11.6501C101.376 12.2768 101.768 13.17 101.768 14.3294C101.768 15.4576 101.376 16.335 100.593 16.9618C99.8407 17.5885 98.7282 17.9019 97.2553 17.9019ZM116.404 45.1654C114.179 45.1654 112.268 44.8364 110.67 44.1783C109.071 43.4889 107.771 42.5487 106.768 41.3579C105.765 40.1671 105.029 38.8039 104.559 37.2684C104.089 35.7329 103.854 34.1033 103.854 32.3798C103.854 30.6249 104.089 28.964 104.559 27.3971C105.029 25.7989 105.75 24.3731 106.721 23.1196C107.724 21.8347 109.009 20.8319 110.576 20.1112C112.174 19.3904 114.085 19.03 116.31 19.03C118.285 19.03 119.961 19.3121 121.34 19.8762C122.75 20.4402 123.878 21.2237 124.725 22.2265C125.571 23.1979 126.15 24.3104 126.464 25.5639C126.777 26.786 126.824 28.0709 126.605 29.4184L120.024 29.9354C120.087 28.8073 119.961 27.8829 119.648 27.1621C119.366 26.41 118.927 25.8616 118.332 25.5169C117.736 25.1408 117.016 24.9528 116.169 24.9528C115.417 24.9528 114.744 25.0938 114.148 25.3759C113.584 25.6579 113.098 26.0966 112.691 26.692C112.315 27.2561 112.017 27.9769 111.798 28.8543C111.61 29.7318 111.516 30.7816 111.516 32.0037C111.516 33.5706 111.688 34.9181 112.033 36.0462C112.409 37.1744 112.957 38.0362 113.678 38.6316C114.43 39.227 115.37 39.5247 116.498 39.5247C117.658 39.5247 118.535 39.2426 119.131 38.6786C119.726 38.1145 120.118 37.4094 120.306 36.5633C120.494 35.6859 120.525 34.8241 120.4 33.978L127.404 34.307C127.592 35.6859 127.529 37.0334 127.216 38.3495C126.902 39.6344 126.291 40.7938 125.383 41.828C124.505 42.8621 123.314 43.6769 121.81 44.2723C120.337 44.8677 118.535 45.1654 116.404 45.1654ZM129.851 44.5073V11.6031H137.278V29.0423C138.344 28.4783 139.252 27.8358 140.004 27.1151C140.788 26.3943 141.446 25.6266 141.979 24.8118C142.511 23.9657 142.934 23.1196 143.248 22.2735C143.593 21.396 143.875 20.5342 144.094 19.6881H152.837C152.492 20.9416 151.991 22.1638 151.333 23.3546C150.706 24.5141 149.923 25.6109 148.983 26.645C148.042 27.6478 146.946 28.5566 145.692 29.3714C144.47 30.1861 143.107 30.8599 141.603 31.3926V31.7687C143.546 31.4553 145.128 31.424 146.35 31.6747C147.604 31.894 148.591 32.3328 149.312 32.9908C150.032 33.6176 150.581 34.4167 150.957 35.3882C151.364 36.3596 151.678 37.4407 151.897 38.6316L152.978 44.5073H144.752L144.235 40.3708C144.11 39.368 143.937 38.4279 143.718 37.5504C143.499 36.673 143.075 35.9679 142.449 35.4352C141.822 34.8711 140.835 34.589 139.487 34.589H137.278V44.5073H129.851ZM165.979 45.1654C163.629 45.1654 161.654 44.8364 160.056 44.1783C158.489 43.4889 157.22 42.5644 156.249 41.4049C155.277 40.2141 154.572 38.8666 154.133 37.3624C153.726 35.8582 153.522 34.2757 153.522 32.6148C153.522 30.8286 153.742 29.1207 154.18 27.4911C154.65 25.8616 155.356 24.4201 156.296 23.1666C157.267 21.8817 158.505 20.8789 160.009 20.1582C161.545 19.4061 163.378 19.03 165.509 19.03C167.64 19.03 169.457 19.4061 170.962 20.1582C172.497 20.8789 173.719 21.8974 174.628 23.2136C175.537 24.5298 176.117 26.0496 176.367 27.7732C176.649 29.4967 176.618 31.3613 176.273 33.3669L158.27 33.6489V29.5124L170.445 29.2774L169.457 31.6747C169.645 30.2332 169.614 29.0267 169.363 28.0552C169.144 27.0524 168.721 26.3003 168.094 25.7989C167.467 25.2662 166.606 24.9998 165.509 24.9998C164.349 24.9998 163.425 25.2975 162.736 25.8929C162.046 26.4883 161.56 27.3344 161.278 28.4313C160.996 29.4967 160.855 30.7659 160.855 32.2387C160.855 34.7771 161.278 36.626 162.124 37.7855C162.971 38.9449 164.271 39.5247 166.026 39.5247C166.778 39.5247 167.405 39.4307 167.906 39.2426C168.408 39.0546 168.815 38.7883 169.128 38.4435C169.442 38.0675 169.661 37.6288 169.786 37.1274C169.912 36.5946 169.959 35.9992 169.927 35.3411L176.884 35.7172C176.978 36.7513 176.869 37.8168 176.555 38.9136C176.273 40.0104 175.725 41.0289 174.91 41.969C174.095 42.9091 172.951 43.6769 171.479 44.2723C170.037 44.8677 168.204 45.1654 165.979 45.1654ZM179.52 44.5073V31.0166V19.6881H186.1V29.5594H186.477C186.665 26.9271 187.025 24.8588 187.558 23.3546C188.122 21.8191 188.811 20.7379 189.626 20.1112C190.472 19.4531 191.412 19.1241 192.446 19.1241C193.01 19.1241 193.59 19.2024 194.185 19.3591C194.812 19.5158 195.423 19.7665 196.019 20.1112L195.643 28.5723C194.953 28.1649 194.28 27.8672 193.621 27.6792C192.963 27.4598 192.337 27.3501 191.741 27.3501C190.738 27.3501 189.892 27.6322 189.203 28.1962C188.513 28.7603 187.981 29.5907 187.605 30.6875C187.26 31.7844 187.088 33.1162 187.088 34.6831V44.5073H179.52ZM208.877 45.1654C207.217 45.1654 205.665 44.9931 204.224 44.6483C202.814 44.335 201.576 43.8179 200.51 43.0971C199.476 42.3764 198.677 41.4206 198.113 40.2298C197.58 39.0076 197.361 37.5348 197.455 35.8112L204.083 35.2471C204.146 36.2813 204.381 37.143 204.788 37.8325C205.195 38.4905 205.759 38.9763 206.48 39.2897C207.201 39.603 208.078 39.7597 209.112 39.7597C210.084 39.7597 210.914 39.603 211.604 39.2897C212.325 38.9449 212.685 38.3809 212.685 37.5974C212.685 37.19 212.56 36.861 212.309 36.6103C212.058 36.3283 211.588 36.0776 210.899 35.8582C210.241 35.6075 209.269 35.3255 207.984 35.0121C206.386 34.6047 204.945 34.1973 203.66 33.7899C202.375 33.3826 201.278 32.8968 200.369 32.3328C199.461 31.7687 198.771 31.0793 198.301 30.2645C197.831 29.4184 197.596 28.3842 197.596 27.1621C197.596 25.4385 198.05 23.9813 198.959 22.7905C199.899 21.5684 201.184 20.6439 202.814 20.0172C204.443 19.3591 206.323 19.03 208.454 19.03C210.366 19.03 212.152 19.3277 213.813 19.9232C215.474 20.5186 216.774 21.49 217.715 22.8375C218.686 24.185 219.046 25.9713 218.796 28.1962L212.309 28.8073C212.403 27.8985 212.278 27.1308 211.933 26.504C211.588 25.8459 211.087 25.3602 210.429 25.0468C209.771 24.7021 208.971 24.5298 208.031 24.5298C206.966 24.5298 206.135 24.7334 205.54 25.1408C204.976 25.5169 204.694 26.0026 204.694 26.598C204.694 27.0681 204.866 27.4755 205.211 27.8202C205.587 28.1335 206.151 28.4156 206.903 28.6663C207.687 28.8856 208.689 29.1363 209.912 29.4184C210.977 29.6377 212.09 29.9198 213.249 30.2645C214.409 30.6092 215.49 31.0793 216.492 31.6747C217.495 32.2387 218.31 32.9908 218.937 33.931C219.564 34.8711 219.877 36.0619 219.877 37.5034C219.877 39.039 219.454 40.3865 218.608 41.5459C217.762 42.7054 216.524 43.5985 214.894 44.2253C213.265 44.852 211.259 45.1654 208.877 45.1654Z" fill="white"/>
<path fill-rule="evenodd" clip-rule="evenodd" d="M48.8756 32.2604C50.1531 30.9829 51 29.3069 51 27.5002C51 13.417 39.5833 2.00024 25.5 2.00024C11.4167 2.00024 0 13.417 0 27.5002C0 41.5835 11.4167 53.0002 25.5 53.0002C27.3067 53.0002 28.9826 52.1533 30.2602 50.8758L48.8756 32.2604Z" fill="#FAE07B"/>
<path d="M25.3286 45.8147C20.3945 45.8147 15.6624 43.8546 12.1734 40.3657C8.68445 36.8767 6.72437 32.1446 6.72437 27.2105C6.72437 22.2763 8.68445 17.5442 12.1734 14.0553C15.6624 10.5663 20.3945 8.6062 25.3286 8.6062C30.2628 8.6062 34.9948 10.5663 38.4838 14.0553C41.9728 17.5442 43.9329 22.2763 43.9329 27.2105" stroke="#ED5724" stroke-width="3.81626" stroke-linecap="round" stroke-linejoin="round"/>
<path d="M43.4559 27.5779C37.9431 25.5517 31.5274 27.2107 27.743 32.1036C24.722 36.0094 24.117 41.0199 25.6983 45.3377" stroke="#ED5724" stroke-width="3.81626" stroke-linecap="round" stroke-linejoin="round"/>
<path d="M25.8057 45.8147L43.9329 27.6875" stroke="#ED5724" stroke-width="3.33923" stroke-linecap="round" stroke-linejoin="round"/>
</svg>
